<?xml version="1.0" encoding="UTF-8"?>
<!DOCTYPE svg PUBLIC "-//W3C//DTD SVG 1.1//EN" "http://www.w3.org/Graphics/SVG/1.1/DTD/svg11.dtd">
<svg version="1.1" xmlns="http://www.w3.org/2000/svg" xmlns:xlink="http://www.w3.org/1999/xlink" x="0" y="0" width="1024" height="1024" viewBox="0, 0, 1024, 1024">
  <g id="Layer_1">
    <path d="M528.16,289.827 L939,527.026 L938.825,527.329 L939,527.329 L939,777.329 L939,777.329 L939,777.465 L652.006,943.16 L652.025,943.171 L512.025,1024 L512.006,1023.989 L512,1023.993 L372.001,943.164 L372.007,943.16 L85,777.457 L85,615.799 L512.007,862.331 L799,696.636 L799,607.855 L388.16,370.657 L528.16,289.827 z" fill="#2D7BE5"/>
    <path d="M512.025,-1.087 L652.025,79.742 L652.006,79.752 L939,245.448 L939,407.106 L512.006,160.581 L225,326.285 L225,414.738 L635.964,652.008 L495.964,732.837 L85,495.567 L85.001,495.564 L85,495.564 L85,407.114 L85,407.114 L85,245.456 L372.007,79.752 L372,79.749 L512,-1.08 L512.006,-1.076 L512.025,-1.087 z" fill="#2D7BE5"/>
  </g>
</svg>
